<?xml version="1.0" encoding="utf-8"?>
<!-- Generator: Adobe Illustrator 18.0.0, SVG Export Plug-In . SVG Version: 6.00 Build 0)  -->
<!DOCTYPE svg PUBLIC "-//W3C//DTD SVG 1.1//EN" "http://www.w3.org/Graphics/SVG/1.1/DTD/svg11.dtd">
<svg version="1.1" id="Calque_1" xmlns="http://www.w3.org/2000/svg" xmlns:xlink="http://www.w3.org/1999/xlink" x="0px" y="0px"
	 viewBox="0 0 30 20" enable-background="new 0 0 30 20" xml:space="preserve">
<g>
	<g>
		<g>
			<defs>
				<rect id="SVGID_1_" width="30" height="20"/>
			</defs>
			<clipPath id="SVGID_2_">
				<use xlink:href="#SVGID_1_"  overflow="visible"/>
			</clipPath>
		</g>
	</g>
	<g>
		<rect fill="#211F60" width="30" height="20"/>
		<g>
			<defs>
				<rect id="SVGID_3_" width="30" height="20"/>
			</defs>
			<clipPath id="SVGID_4_">
				<use xlink:href="#SVGID_3_"  overflow="visible"/>
			</clipPath>
			<g clip-path="url(#SVGID_4_)">
				<g>
					
						<rect x="-3" y="8.7" transform="matrix(0.832 0.5547 -0.5547 0.832 8.0665 -6.641)" fill="#FFFFFF" width="36.1" height="2.7"/>
				</g>
				<g>
					
						<rect x="13.7" y="-8" transform="matrix(0.5543 0.8323 -0.8323 0.5543 15.0092 -8.0276)" fill="#FFFFFF" width="2.7" height="36.1"/>
				</g>
				<g>
					<rect x="13.7" fill="#FFFFFF" width="2.7" height="20"/>
				</g>
				<g>
					<rect y="8.3" fill="#FFFFFF" width="30" height="3.3"/>
				</g>
				<g>
					
						<rect x="-3" y="9.3" transform="matrix(0.832 0.5547 -0.5547 0.832 8.0663 -6.641)" fill="#FF0000" width="36.1" height="1.3"/>
				</g>
				<g>
					
						<rect x="14.3" y="-8" transform="matrix(0.5549 0.8319 -0.8319 0.5549 14.9958 -8.0278)" fill="#FF0000" width="1.3" height="36.1"/>
				</g>
				<g>
					<rect x="14.3" fill="#FF0000" width="1.3" height="20"/>
				</g>
				<g>
					<rect y="8.7" fill="#FF0000" width="30" height="2.7"/>
				</g>
			</g>
		</g>
	</g>
	<g>
		<g>
			<defs>
				<rect id="SVGID_5_" width="30" height="20"/>
			</defs>
			<clipPath id="SVGID_6_">
				<use xlink:href="#SVGID_5_"  overflow="visible"/>
			</clipPath>
		</g>
	</g>
</g>
</svg>
