<?xml version="1.0" encoding="utf-8"?>
<!-- Generator: Adobe Illustrator 17.1.0, SVG Export Plug-In . SVG Version: 6.00 Build 0)  -->
<!DOCTYPE svg PUBLIC "-//W3C//DTD SVG 1.1//EN" "http://www.w3.org/Graphics/SVG/1.1/DTD/svg11.dtd">
<svg version="1.1" id="Calque_1" xmlns="http://www.w3.org/2000/svg" xmlns:xlink="http://www.w3.org/1999/xlink" x="0px" y="0px"
	 viewBox="0 0 23 19" enable-background="new 0 0 23 19" xml:space="preserve">
<path fill="#FFFFFF" d="M22.81,2.213c-0.846,0.375-1.756,0.629-2.71,0.743c0.974-0.584,1.722-1.509,2.075-2.611
	c-0.912,0.541-1.922,0.933-2.997,1.145C18.318,0.573,17.091,0,15.734,0c-2.606,0-4.719,2.113-4.719,4.719
	c0,0.37,0.042,0.73,0.122,1.075c-3.922-0.197-7.399-2.075-9.726-4.93C1.005,1.561,0.772,2.371,0.772,3.236
	c0,1.637,0.833,3.081,2.099,3.928c-0.773-0.024-1.501-0.237-2.137-0.59c0,0.02,0,0.039,0,0.059c0,2.286,1.627,4.193,3.785,4.627
	c-0.396,0.108-0.813,0.165-1.243,0.165c-0.304,0-0.6-0.03-0.888-0.085c0.601,1.875,2.343,3.239,4.408,3.277
	c-1.615,1.266-3.65,2.02-5.86,2.02c-0.381,0-0.756-0.022-1.126-0.066c2.088,1.339,4.569,2.12,7.233,2.12
	c8.679,0,13.426-7.19,13.426-13.426c0-0.205-0.005-0.408-0.014-0.611C21.378,3.99,22.178,3.159,22.81,2.213L22.81,2.213z"/>
</svg>
