<?xml version="1.0" encoding="utf-8"?>
<!-- Generator: Adobe Illustrator 17.1.0, SVG Export Plug-In . SVG Version: 6.00 Build 0)  -->
<!DOCTYPE svg PUBLIC "-//W3C//DTD SVG 1.1//EN" "http://www.w3.org/Graphics/SVG/1.1/DTD/svg11.dtd">
<svg version="1.1" id="Calque_1" xmlns="http://www.w3.org/2000/svg" xmlns:xlink="http://www.w3.org/1999/xlink" x="0px" y="0px"
	 viewBox="0 0 23 19" enable-background="new 0 0 23 19" xml:space="preserve">
<g>
	<polygon id="Plus" fill="#FFFFFF" points="23,4.137 19.275,4.137 19.275,0.412 18.344,0.412 18.344,4.137 14.619,4.137 
		14.619,5.068 18.344,5.068 18.344,8.793 19.275,8.793 19.275,5.068 23,5.068 	"/>
	<path id="g" fill="#FFFFFF" d="M10.538,11.112c-0.52-0.368-1.515-1.264-1.515-1.791c0-0.617,0.176-0.921,1.105-1.647
		c0.952-0.744,1.626-1.79,1.626-3.006c0-1.448-0.645-2.859-1.856-3.325h1.825l1.288-0.931c0,0-4.317,0-5.757,0
		c-2.581,0-5.01,1.955-5.01,4.22c0,2.314,1.759,4.182,4.385,4.182c0.183,0,0.36-0.004,0.534-0.016
		c-0.17,0.326-0.292,0.694-0.292,1.075c0,0.643,0.346,1.165,0.784,1.59c-0.331,0-0.65,0.01-0.998,0.01C3.46,11.473,1,13.509,1,15.62
		C1,17.699,3.697,19,6.894,19c3.644,0,5.657-2.068,5.657-4.147C12.551,13.186,12.059,12.187,10.538,11.112z M7.463,8.228
		C5.98,8.183,4.57,6.568,4.314,4.621C4.058,2.673,5.053,1.183,6.536,1.227c1.483,0.045,2.893,1.607,3.149,3.555
		C9.94,6.729,8.945,8.272,7.463,8.228z M6.882,18.081c-2.209,0-3.805-1.399-3.805-3.079c0-1.647,1.979-3.017,4.189-2.993
		c0.516,0.005,0.996,0.088,1.432,0.23c1.199,0.834,2.06,1.305,2.302,2.256c0.046,0.193,0.07,0.391,0.07,0.594
		C11.071,16.768,9.988,18.081,6.882,18.081z"/>
</g>
</svg>
