<?xml version="1.0" encoding="utf-8"?>
<!-- Generator: Adobe Illustrator 18.1.1, SVG Export Plug-In . SVG Version: 6.00 Build 0)  -->
<!DOCTYPE svg PUBLIC "-//W3C//DTD SVG 1.1 Tiny//EN" "http://www.w3.org/Graphics/SVG/1.1/DTD/svg11-tiny.dtd">
<svg version="1.1" baseProfile="tiny" id="Calque_1"
	 xmlns="http://www.w3.org/2000/svg" xmlns:xlink="http://www.w3.org/1999/xlink" x="0px" y="0px" viewBox="0 0 23 19"
	 xml:space="preserve">
<g>
	<g>
		<rect x="2.6" y="6.2" fill="#FFFFFF" width="4.3" height="12.8"/>
		<path fill="#FFFFFF" d="M20.9,7.3c-0.9-1-2.1-1.5-3.6-1.5c-0.5,0-1,0.1-1.5,0.2c-0.4,0.1-0.8,0.3-1.1,0.6
			c-0.3,0.2-0.6,0.5-0.7,0.7c-0.2,0.2-0.3,0.4-0.5,0.7V6.2H9.2l0,0.6c0,0.4,0,1.7,0,3.8c0,2.1,0,4.9,0,8.4h4.3v-7.2
			c0-0.4,0-0.8,0.1-1c0.2-0.4,0.5-0.8,0.8-1.1c0.4-0.3,0.8-0.4,1.4-0.4c0.7,0,1.3,0.3,1.6,0.8c0.3,0.5,0.5,1.2,0.5,2.1V19h4.3v-7.4
			C22.2,9.8,21.8,8.3,20.9,7.3z"/>
		<path fill="#FFFFFF" d="M4.7,0C4,0,3.4,0.2,3,0.6C2.6,1,2.3,1.6,2.3,2.2c0,0.6,0.2,1.2,0.6,1.6c0.4,0.4,1,0.6,1.7,0.6h0
			c0.7,0,1.3-0.2,1.8-0.6c0.4-0.4,0.7-0.9,0.7-1.6c0-0.6-0.2-1.2-0.7-1.6C6,0.2,5.5,0,4.7,0z"/>
	</g>
</g>
</svg>
